<svg xmlns="http://www.w3.org/2000/svg" xmlns:xlink="http://www.w3.org/1999/xlink" aria-hidden="true" overflow="hidden" style="width:0;height:0;position:absolute"><defs><path id="reuse-0" d="M32 0H0v32h32V0z"/><path id="reuse-1" fill="var(--color2, #292e36)" d="M0 16C0 7.163 7.163 0 16 0s16 7.163 16 16-7.163 16-16 16S0 24.837 0 16z"/></defs><defs><symbol id="icon-calendar" viewBox="0 0 32 32"><use xlink:href="#reuse-0"/></symbol><symbol id="icon-drive" viewBox="0 0 32 32"><use xlink:href="#reuse-0"/></symbol><symbol id="icon-fb" viewBox="0 0 33 32"><path d="M32.87 15.826C32.87 7.086 25.511 0 16.435 0S0 7.086 0 15.826c0 7.899 6.009 14.446 13.867 15.635V20.403H9.693v-4.576h4.174V12.34c0-3.966 2.454-6.158 6.208-6.158 1.798 0 3.679.309 3.679.309v3.895h-2.073c-2.04 0-2.679 1.219-2.679 2.473v2.967h4.558l-.728 4.576h-3.829v11.06c7.858-1.188 13.867-7.735 13.867-15.636z"/></symbol><symbol id="icon-instagram" viewBox="0 0 33 32"><path d="M23.282 2.637c1.815.005 3.553.702 4.836 1.937s2.006 2.91 2.012 4.657v13.188c-.005 1.747-.729 3.422-2.012 4.657s-3.022 1.932-4.836 1.937H9.587c-1.815-.005-3.553-.702-4.837-1.937s-2.006-2.91-2.012-4.657V9.231c.005-1.747.729-3.422 2.012-4.657s3.022-1.932 4.837-1.937h13.695zm0-2.637H9.587C4.314 0 0 4.154 0 9.232V22.42c0 5.078 4.314 9.232 9.587 9.232h13.695c5.273 0 9.587-4.154 9.587-9.232V9.232C32.869 4.154 28.555 0 23.282 0z"/><path d="M25.337 9.232c-.406 0-.804-.116-1.141-.333s-.601-.526-.757-.888c-.156-.362-.196-.759-.117-1.143s.275-.736.562-1.013.653-.465 1.052-.541c.398-.076.812-.037 1.187.113s.696.403.922.729a1.924 1.924 0 0 1-.254 2.499 2.09 2.09 0 0 1-1.454.578zm-8.902 1.319c1.084 0 2.143.309 3.044.889s1.603 1.404 2.018 2.368c.415.964.523 2.025.312 3.048s-.733 1.963-1.499 2.701-1.742 1.24-2.805 1.444c-1.063.204-2.164.099-3.165-.3s-1.857-1.075-2.459-1.943a5.14 5.14 0 0 1-.923-2.931c.002-1.399.579-2.74 1.606-3.729s2.42-1.545 3.872-1.547zm0-2.638c-1.625 0-3.214.464-4.565 1.334s-2.405 2.105-3.027 3.551c-.622 1.446-.785 3.037-.468 4.572s1.1 2.945 2.249 4.052 2.613 1.86 4.207 2.166c1.594.305 3.246.149 4.748-.45s2.785-1.613 3.688-2.914 1.385-2.831 1.385-4.396c0-2.099-.866-4.111-2.407-5.595s-3.631-2.318-5.811-2.318z"/></symbol><symbol id="icon-location" viewBox="0 0 32 32"><use xlink:href="#reuse-1"/><path fill="var(--color3, #000)" d="M26.217 5.783H6.169v20.048h20.048V5.783z"/></symbol><symbol id="icon-logo" viewBox="0 0 64 32"><path fill="var(--color4, #e1b168)" d="M32.17 27.016c-5.787 0-10.499-4.71-10.499-10.503S26.383 6.014 32.17 6.014s10.499 4.71 10.499 10.503-4.712 10.499-10.499 10.499zm0-20.667c-5.603 0-10.164 4.559-10.164 10.168s4.561 10.164 10.164 10.164 10.164-4.559 10.164-10.168S37.773 6.349 32.17 6.349z"/><path fill="var(--color4, #e1b168)" d="M32.17 29.028c-.848 0-1.696-.087-2.52-.255a12.48 12.48 0 0 1-2.349-.727 12.463 12.463 0 0 1-3.975-2.682 12.76 12.76 0 0 1-1.528-1.851.145.145 0 1 1 .241-.161 12.243 12.243 0 0 0 5.375 4.428c.737.312 1.508.55 2.292.711 1.608.329 3.314.329 4.926 0a12.168 12.168 0 0 0 6.176-3.329 12.029 12.029 0 0 0 1.491-1.81.145.145 0 1 1 .241.161 12.674 12.674 0 0 1-3.378 3.38 12.334 12.334 0 0 1-4.474 1.88c-.824.168-1.672.255-2.52.255zM42.421 9.745a.15.15 0 0 1-.121-.064 12.243 12.243 0 0 0-5.375-4.428 12.168 12.168 0 0 0-2.292-.711 12.416 12.416 0 0 0-4.926 0 12.1 12.1 0 0 0-4.366 1.837 12.25 12.25 0 0 0-3.301 3.302.145.145 0 1 1-.241-.161c.449-.664.962-1.287 1.528-1.851a12.472 12.472 0 0 1 6.324-3.413 12.616 12.616 0 0 1 5.04 0 12.542 12.542 0 0 1 4.474 1.884c.663.449 1.287.962 1.85 1.529a12.87 12.87 0 0 1 1.528 1.85.145.145 0 0 1-.04.201.163.163 0 0 1-.081.023z"/><path fill="var(--color4, #e1b168)" d="M32.676 20.251a5.247 5.247 0 0 1-2.182-.476 3.854 3.854 0 0 1-1.635.362 3.91 3.91 0 0 1-3.904-3.905 3.91 3.91 0 0 1 3.063-3.812 5.286 5.286 0 0 1 4.658-2.776 5.292 5.292 0 0 1 5.281 4.941 3.011 3.011 0 0 1 1.424 2.551 3.007 3.007 0 0 1-3.003 3.004 2.993 2.993 0 0 1-1.471-.389c-.704.332-1.458.5-2.232.5zm-2.181-.845.074.034c1.364.64 2.929.63 4.279-.03l.081-.04.077.047c.419.251.895.385 1.377.385a2.67 2.67 0 0 0 2.667-2.668c0-.949-.513-1.834-1.337-2.31l-.08-.047-.003-.091a4.959 4.959 0 0 0-9.353-2.045l-.037.07-.077.017a3.581 3.581 0 0 0-2.872 3.5 3.574 3.574 0 0 0 3.569 3.57 3.58 3.58 0 0 0 1.562-.362l.074-.03z"/><path fill="var(--color4, #e1b168)" d="M36.101 23.382H28.24v-3.627l.188.023c.164.02.302.03.432.03a3.58 3.58 0 0 0 1.562-.362l.074-.04.074.033c1.364.64 2.929.63 4.279-.03l.081-.04.077.047c.291.174.61.292.955.349l.141.023v3.594zm-7.527-.335h7.191V20.07a2.963 2.963 0 0 1-.855-.322 5.268 5.268 0 0 1-4.417.03 3.854 3.854 0 0 1-1.92.349v2.92zm.262-7.962a.166.166 0 0 1-.168-.168 3.964 3.964 0 0 1 3.958-3.959c.094 0 .167.074.167.168s-.074.168-.167.168a3.628 3.628 0 0 0-3.623 3.624.166.166 0 0 1-.168.168zm35.337-3.094H41.57c-.094 0-.167-.074-.167-.168s.074-.168.167-.168h22.603c.094 0 .168.074.168.168s-.074.168-.168.168zm0 9.383H41.57c-.094 0-.167-.074-.167-.168s.074-.168.167-.168h22.603c.094 0 .168.074.168.168s-.074.168-.168.168zm-41.402-9.383H.168c-.094 0-.168-.074-.168-.168s.074-.168.168-.168h22.603a.168.168 0 0 1 0 .336zm0 9.383H.168c-.094 0-.168-.074-.168-.168s.074-.168.168-.168h22.603a.168.168 0 0 1 0 .336zm-9.983-4.033H6.991c-.456 0-.828-.372-.828-.828s.372-.828.828-.828h6.253c.094 0 .168.074.168.168s-.074.168-.168.168H6.991a.494.494 0 0 0 0 .986h5.794c.094 0 .168.074.168.168s-.074.168-.164.168z"/><path fill="var(--color4, #e1b168)" d="M3.304 18.88C1.545 18.88.11 17.821.11 16.517s1.431-2.363 3.194-2.363c1.759 0 3.194 1.059 3.194 2.363S5.067 18.88 3.304 18.88zm0-4.395c-1.575 0-2.858.912-2.858 2.028s1.283 2.028 2.858 2.028 2.858-.912 2.858-2.028-1.28-2.028-2.858-2.028zm53.674 2.856h-5.794c-.094 0-.168-.074-.168-.168s.074-.168.168-.168h5.794a.494.494 0 0 0 0-.986h-6.253c-.094 0-.168-.074-.168-.168s.074-.168.168-.168h6.253c.456 0 .828.372.828.828s-.372.828-.828.828z"/><path fill="var(--color4, #e1b168)" d="M60.158 18.082h-1.119c-.864 0-1.568-.704-1.568-1.569s.704-1.569 1.568-1.569h1.119v3.138zm-1.119-2.799a1.234 1.234 0 0 0 0 2.468h.784v-2.464h-.784v-.003z"/><path fill="var(--color4, #e1b168)" d="M63.69 15.283h-3.696c-.094 0-.167-.074-.167-.168s.074-.168.167-.168h3.696c.094 0 .167.074.167.168s-.077.168-.167.168zm0 1.398h-3.696c-.094 0-.167-.074-.167-.168s.074-.168.167-.168h3.696c.094 0 .167.074.167.168s-.077.168-.167.168zm0 1.401h-3.696c-.094 0-.167-.074-.167-.168s.074-.168.167-.168h3.696c.094 0 .167.074.167.168s-.077.168-.167.168zm-41.824.798h-2.929c-.094 0-.168-.074-.168-.168s.074-.168.168-.168h2.929c.094 0 .168.074.168.168s-.074.168-.168.168zm-.144-2.497h-5.559c-.094 0-.168-.074-.168-.168s.074-.168.168-.168h5.559c.094 0 .168.074.168.168s-.074.168-.168.168zm.368-2.498h-2.929c-.094 0-.168-.074-.168-.168s.074-.168.168-.168h2.929c.094 0 .168.074.168.168s-.074.168-.168.168zm-.228 3.745h-4.35c-.094 0-.168-.074-.168-.168s.074-.168.168-.168h4.35a.168.168 0 0 1 0 .336zm-.023-2.514h-4.35c-.094 0-.168-.074-.168-.168s.074-.168.168-.168h4.35c.094 0 .168.074.168.168s-.074.168-.168.168zm23.561-.932h-2.929c-.094 0-.167-.074-.167-.168s.074-.168.167-.168H45.4c.094 0 .168.074.168.168s-.074.168-.168.168zm2.778 2.497h-5.559c-.094 0-.168-.074-.168-.168s.074-.168.168-.168h5.559c.094 0 .168.074.168.168s-.074.168-.168.168zm-3.002 2.498h-2.929c-.094 0-.167-.074-.167-.168s.074-.168.167-.168h2.929c.094 0 .168.074.168.168s-.074.168-.168.168zm1.652-3.745h-4.35c-.094 0-.168-.074-.168-.168s.074-.168.168-.168h4.35c.094 0 .167.074.167.168s-.074.168-.167.168zm.023 2.514h-4.35c-.094 0-.168-.074-.168-.168s.074-.168.168-.168h4.35c.094 0 .167.074.167.168s-.077.168-.167.168zm-25.736 6.926-1.672.429-.265-.419.677-.801-1.022.255-.265-.419 1.103-1.328.255.406-.71.841 1.072-.268.228.362-.717.845 1.079-.275.238.372zm.452 2.347-.261.245-.905-.959 1.196-1.126.885.939-.261.245-.566-.603-.208.191.499.53-.251.238-.499-.53-.218.204.59.627zm1.532-.345.365.288-.791.999.613.486-.228.288-.979-.774 1.019-1.287zm1.106 2.708a.806.806 0 0 1-.014-.864c.081-.144.188-.251.318-.325s.275-.111.432-.104c.154.003.308.05.456.134.131.074.235.164.315.271s.127.221.147.349l-.392.084a.492.492 0 0 0-.476-.426c-.08 0-.154.02-.221.064a.544.544 0 0 0-.241.425c0 .08.017.154.06.224.04.067.1.124.178.168a.483.483 0 0 0 .432.023l.124.379c-.117.047-.245.064-.375.05s-.261-.057-.392-.131a.918.918 0 0 1-.352-.322zm2.252 1.113a.838.838 0 0 1-.204-.399c-.03-.148-.017-.298.037-.453s.141-.278.261-.372c.117-.094.255-.154.409-.178s.315-.003.479.054a.976.976 0 0 1 .402.261c.104.117.174.248.204.399s.017.298-.037.453-.141.278-.261.372c-.117.097-.255.154-.409.178s-.315.003-.476-.054a.984.984 0 0 1-.405-.261zm.764-.08a.427.427 0 0 0 .208-.101c.06-.054.107-.124.137-.211s.04-.171.027-.251-.044-.151-.094-.208a.454.454 0 0 0-.422-.151.435.435 0 0 0-.208.101c-.064.054-.107.124-.137.211s-.04.171-.027.252a.432.432 0 0 0 .516.359zm3.026 1.116.127-.861-.526.637-.204-.03-.312-.741-.131.838-.426-.067.251-1.622.379.057.426 1.026.7-.851.379.057-.245 1.623-.419-.064zm2.878-.275.007.359-1.317.027-.034-1.643 1.287-.027.007.359-.828.017.007.278.731-.017.007.349-.73.017.007.302.858-.02zm2.463-1.324-.486.131-.097-.355 1.421-.382.097.355-.486.131.332 1.23-.449.121-.332-1.23zm2.47.439a.809.809 0 0 1-.422-.144c-.127-.084-.221-.201-.288-.349s-.09-.298-.074-.449c.017-.151.074-.288.171-.412s.221-.221.379-.295c.157-.074.315-.104.472-.094s.298.057.422.144c.127.087.221.201.288.352s.091.298.074.449c-.017.151-.074.288-.171.412s-.221.221-.382.295a.976.976 0 0 1-.469.091zm.493-.59a.436.436 0 0 0 .077-.218c.007-.081-.01-.164-.047-.248s-.09-.151-.154-.198a.431.431 0 0 0-.442-.044.436.436 0 0 0-.258.366c-.007.084.01.164.047.248s.091.151.154.198a.427.427 0 0 0 .442.044.426.426 0 0 0 .181-.147zm3.119-1.542c-.154.034-.302.023-.446-.023s-.268-.134-.372-.258c-.104-.124-.167-.262-.191-.412s-.007-.298.054-.443c.057-.144.154-.275.288-.386s.275-.184.429-.218c.154-.034.302-.027.446.023s.268.134.372.258c.104.124.167.261.191.412s.007.298-.054.443a.964.964 0 0 1-.288.386.96.96 0 0 1-.429.218zm.316-.701a.442.442 0 0 0-.097-.452.528.528 0 0 0-.201-.151c-.074-.03-.151-.037-.228-.023s-.148.047-.211.101a.442.442 0 0 0-.151.419c.017.081.054.154.114.225s.127.121.201.151c.077.03.151.037.228.023s.147-.047.211-.101a.411.411 0 0 0 .134-.191zm1.534-1.153c-.188.02-.375-.05-.563-.208l-.697-.583.298-.355.687.573c.201.168.369.171.503.013.131-.158.097-.322-.104-.49l-.687-.573.295-.352.697.583c.188.157.288.328.305.52s-.054.379-.211.563c-.164.188-.335.288-.523.308zm1.612-2.688-.127.218.375.221-.235.402-1.418-.828.379-.65c.074-.128.161-.228.258-.298s.201-.107.312-.114c.107-.007.218.023.322.084s.178.137.228.228a.595.595 0 0 1 .06.312l.623-.04-.251.429-.526.037zm-.56-.58c-.06.02-.114.074-.164.154l-.131.225.416.241.131-.224c.047-.084.067-.154.054-.218-.01-.064-.05-.114-.117-.151s-.127-.047-.188-.027zM18.716 7.465c.02.164.1.342.248.53.007.003.003.013-.007.027s-.02.017-.027.013c-.087-.08-.201-.181-.342-.308a7.243 7.243 0 0 0-.322-.272c-.013-.01-.013-.02-.003-.034s.02-.017.034-.007c.054.04.131-.007.231-.144.164-.205.349-.443.56-.724.107-.144.218-.295.332-.459l.181-.251c.07-.091.114-.164.134-.215s.017-.097-.01-.137c-.007-.01-.007-.02 0-.034.01-.013.02-.013.027-.007a11.475 11.475 0 0 0 .687.566c.007.007.007.013-.003.027s-.02.02-.027.017c-.204-.114-.385-.161-.54-.137s-.292.111-.405.265a.547.547 0 0 0-.094.164.137.137 0 0 0 .013.114.64.64 0 0 0 .131.124L21.19 7.84a.52.52 0 0 0 .181.101.15.15 0 0 0 .134-.037c.044-.034.104-.101.174-.194.007-.007.017-.007.03.007.013.01.02.02.013.027-.064.084-.114.151-.154.198l-.228.295-.208.285a8.05 8.05 0 0 1-.154.215c-.003.003-.013.003-.027-.01s-.02-.02-.017-.023a.964.964 0 0 0 .137-.225c.02-.054.02-.101-.003-.144s-.07-.091-.144-.144l-1.682-1.26a.444.444 0 0 0-.151-.084c-.037-.01-.074-.003-.111.02s-.077.067-.127.131a.652.652 0 0 0-.137.469zm5.901-2.463c.01.013.013.023.007.03a3.313 3.313 0 0 1-.194.158l-.255.211-.292.251c-.04.037-.094.087-.164.144-.007.007-.017.003-.027-.013-.01-.013-.013-.023-.007-.03.087-.074.148-.134.178-.178s.037-.091.023-.134a.557.557 0 0 0-.111-.174l-.677-.801-1.19 1.006.677.801c.057.07.11.114.151.137.04.02.087.02.137 0a.995.995 0 0 0 .208-.144c.003-.003.013 0 .023.013.013.013.017.023.01.027a2.74 2.74 0 0 1-.188.151l-.292.241-.251.218c-.04.04-.104.094-.181.158-.003.003-.013 0-.023-.013s-.013-.023-.01-.027a.76.76 0 0 0 .168-.174.15.15 0 0 0 .023-.134.466.466 0 0 0-.111-.171l-1.357-1.606c-.06-.07-.111-.114-.151-.134s-.087-.02-.138 0a.83.83 0 0 0-.198.134c-.003.003-.013 0-.023-.013-.013-.013-.017-.023-.01-.027l.188-.151a7.033 7.033 0 0 0 .537-.456l.181-.158c.003-.003.013 0 .023.013s.013.023.01.027a.802.802 0 0 0-.171.181c-.03.047-.037.094-.023.141s.05.104.107.174l.6.707 1.19-1.006-.6-.707a.582.582 0 0 0-.151-.137c-.044-.02-.091-.023-.141-.003s-.121.067-.208.141c-.007.007-.017.003-.027-.013-.013-.013-.013-.023-.007-.03l.168-.137.302-.241c.064-.054.144-.127.248-.221l.188-.164c.007-.007.017-.003.027.013.013.013.013.023.007.03a.86.86 0 0 0-.168.174c-.027.044-.034.091-.02.134s.05.101.107.171l1.357 1.606c.057.07.111.114.151.137a.139.139 0 0 0 .134 0 .935.935 0 0 0 .198-.137c.017-.01.027-.007.037.007zm1.665-1.633c.007-.003.017-.007.027-.007s.013.003.017.003c.084.218.168.409.258.58.01.02.017.04.013.054s-.017.027-.04.04l-1.739.932c-.007.003-.017 0-.023-.017-.01-.017-.01-.027 0-.03.09-.05.154-.091.188-.127s.047-.077.044-.124a.522.522 0 0 0-.074-.191l-.992-1.854a.588.588 0 0 0-.117-.164.156.156 0 0 0-.128-.034.817.817 0 0 0-.208.084c-.007.003-.017 0-.023-.017-.01-.017-.01-.027 0-.03l1.666-.892c.027-.013.047-.01.06.013l.288.516c.003.007-.003.013-.017.023s-.023.013-.03.007c-.228-.272-.493-.322-.801-.158l-.161.087c-.097.05-.154.104-.178.161-.02.057-.01.127.034.208l.439.818.385-.208c.295-.158.389-.335.282-.533-.003-.007 0-.017.017-.023s.023-.007.027 0l.184.352.104.188c.05.084.09.151.12.204.003.007-.003.013-.02.02-.017.01-.027.01-.027.007-.124-.231-.335-.265-.633-.104l-.392.198.486.908c.047.087.097.141.147.158.054.017.121.003.204-.044l.198-.104c.358-.191.493-.486.402-.885-.003-.007.003-.01.013-.017zm1.277-2.44c-.091.137-.141.325-.151.563 0 .007-.007.01-.023.013s-.027 0-.027-.007c-.013-.117-.037-.268-.064-.453s-.05-.322-.074-.416c-.003-.013.003-.023.02-.027s.027 0 .03.017c.017.064.104.077.271.04a23.66 23.66 0 0 0 1.444-.331l.298-.074c.114-.027.194-.054.241-.08s.074-.064.08-.111c0-.013.007-.02.023-.023.013-.003.023 0 .027.013a13.145 13.145 0 0 0 .16.878c.003.01-.003.017-.02.02s-.027 0-.034-.007c-.084-.221-.191-.372-.325-.453-.134-.084-.295-.101-.479-.06-.084.02-.141.04-.178.064s-.057.057-.06.097a.696.696 0 0 0 .02.181l.473 2.042a.57.57 0 0 0 .074.194c.027.037.07.057.124.06.057.003.144-.01.258-.037.01-.003.013.007.02.023.003.017 0 .027-.007.03l-.245.054-.365.08-.345.084c-.06.017-.147.04-.255.064-.007 0-.01-.007-.013-.023s-.003-.027.003-.027c.114-.027.198-.054.248-.08s.08-.064.09-.111.003-.114-.017-.204L28.305.874c-.017-.077-.037-.131-.06-.164s-.057-.05-.097-.057a.477.477 0 0 0-.181.02.578.578 0 0 0-.412.255zm5.731 1.867c0 .017-.007.027-.023.027-.057.003-.151.003-.278 0s-.221 0-.278 0c-.077.003-.164.01-.268.017-.104.01-.181.017-.241.017-.013 0-.02-.01-.02-.027s.007-.027.017-.027c.087-.003.151-.017.191-.037s.06-.054.057-.101a.694.694 0 0 0-.084-.228l-.526-.979-.821.027-.322.798a.583.583 0 0 0-.05.248.28.28 0 0 0 .12.238c.077.05.184.077.322.07.013 0 .023.007.023.027 0 .017-.007.027-.02.027a3.07 3.07 0 0 1-.238 0c-.114-.003-.214 0-.302 0-.08.003-.178.01-.285.02-.097.01-.178.017-.241.017-.013 0-.023-.007-.023-.027 0-.017.007-.027.023-.027a.436.436 0 0 0 .211-.057.534.534 0 0 0 .161-.184c.054-.087.11-.218.181-.392L31.474.01c.013-.003.027-.01.05-.01.02 0 .034.003.037.013l1.19 2.206c.114.215.208.362.282.439s.151.114.235.111c.013 0 .02.007.023.027zm-2.226-1.422.717-.023L31.379.6l-.315.774zm3.214-.415a.84.84 0 0 0 .171.255c.07.077.171.168.298.278.137.121.245.221.322.305s.137.181.184.292a.663.663 0 0 1 .033.365c-.023.154-.087.282-.184.389s-.224.181-.382.225c-.157.044-.328.05-.513.02-.127-.02-.251-.057-.379-.111s-.221-.111-.285-.171a.11.11 0 0 1-.03-.094l.084-.687v-.003c.003-.013.01-.017.027-.017.013 0 .023.007.023.02.057.265.137.486.241.664.1.178.251.285.449.315.127.02.241.003.338-.054s.161-.168.188-.332c.02-.131.01-.251-.03-.359s-.101-.201-.174-.282-.178-.178-.308-.298c-.127-.117-.228-.211-.298-.292s-.127-.168-.167-.272-.054-.218-.034-.345c.027-.154.091-.278.194-.372s.231-.154.379-.184c.147-.03.298-.034.449-.007.1.017.201.044.298.077.097.037.181.074.245.114.027.013.04.027.047.044.007.013.01.034.007.054l-.084.613c0 .01-.01.013-.027.017s-.027-.003-.027-.017c-.03-.191-.084-.369-.161-.533s-.214-.261-.416-.295c-.134-.02-.248 0-.339.064s-.147.164-.171.298a.528.528 0 0 0 .03.315zm2.346-.044c-.151.067-.295.198-.432.392-.003.007-.01.007-.027 0s-.02-.013-.02-.02l.194-.416a4.73 4.73 0 0 0 .164-.389c.007-.013.017-.02.03-.013.017.007.02.017.017.03-.023.064.047.124.204.181a23.057 23.057 0 0 0 1.39.506l.292.101c.107.04.191.06.245.064s.097-.013.127-.05c.007-.01.017-.013.03-.007s.02.013.017.023a12.287 12.287 0 0 0-.342.824c-.003.01-.013.01-.027.003-.017-.007-.023-.013-.023-.023.05-.231.04-.416-.027-.556s-.191-.245-.372-.308c-.08-.03-.141-.044-.184-.044s-.077.017-.104.047a.483.483 0 0 0-.08.161l-.71 1.971c-.03.087-.047.154-.044.201s.027.084.074.117c.047.034.124.07.238.111.01.003.01.013.003.03s-.013.023-.023.02a5.518 5.518 0 0 1-.235-.091l-.349-.131-.335-.117c-.06-.02-.144-.047-.251-.084-.007-.003-.007-.013 0-.03s.013-.023.017-.023c.111.04.194.064.255.067.057.003.104-.01.137-.044s.067-.094.097-.181l.714-1.981c.027-.074.04-.131.037-.171s-.02-.074-.05-.101A.637.637 0 0 0 37.107.9a.663.663 0 0 0-.483.013zm3.555 3.718c.007.003.013.01.017.02s.007.013.003.017a4.82 4.82 0 0 0-.362.52c-.013.02-.023.034-.037.037s-.03 0-.054-.013l-1.699-1.002c-.007-.003-.007-.013.003-.03s.017-.02.027-.017c.087.054.157.084.204.094s.091 0 .127-.027a.65.65 0 0 0 .124-.161l1.069-1.814c.047-.077.074-.141.08-.184s-.007-.087-.04-.127-.094-.084-.178-.134c-.007-.003-.007-.013.003-.03s.017-.02.027-.017l1.629.962c.027.017.034.034.017.057l-.291.513c-.003.007-.013.003-.027 0-.017-.007-.023-.013-.02-.023.114-.335.02-.59-.282-.768l-.157-.091c-.094-.057-.171-.077-.228-.067-.06.01-.114.057-.161.137l-.472.798.375.221c.288.171.489.158.6-.037.003-.007.013-.007.03 0 .013.01.02.017.013.023l-.204.339-.104.188c-.044.087-.08.158-.111.208-.003.007-.013.003-.027-.007-.017-.01-.023-.017-.02-.02.131-.225.054-.422-.238-.597l-.372-.218-.523.888c-.05.087-.07.154-.057.208s.06.104.144.154l.191.114c.349.208.67.168.965-.117-.003-.003.003 0 .013.003zm2.199 2.799c-.013.013-.023.013-.037.003a10.41 10.41 0 0 1-.201-.191 5.292 5.292 0 0 0-.201-.194c-.057-.05-.124-.107-.204-.174-.08-.064-.141-.117-.184-.154-.01-.007-.007-.02.003-.034.013-.013.023-.017.034-.007.064.06.121.094.164.107s.08.003.11-.03a.625.625 0 0 0 .097-.225l.302-1.069-.61-.553-.788.349a.559.559 0 0 0-.208.144c-.07.077-.097.164-.077.255s.08.181.181.275c.01.01.01.023 0 .037-.013.013-.023.013-.034.003a5.755 5.755 0 0 1-.171-.164 11.56 11.56 0 0 0-.214-.208 4.868 4.868 0 0 0-.218-.184 3.053 3.053 0 0 1-.184-.154c-.01-.01-.01-.023 0-.037.013-.013.023-.017.034-.007.064.057.127.094.191.107s.147.007.245-.02a3.47 3.47 0 0 0 .402-.154l2.198-.976c.01-.003.023.003.04.017s.02.027.017.034l-.68 2.414a2.332 2.332 0 0 0-.104.51c0 .107.027.188.091.245.017.01.017.023.007.037zm-.61-2.568.533.483.231-.818-.764.335zm2.617 1.11c-.164-.027-.355 0-.576.087-.003.003-.013 0-.023-.013s-.01-.023-.003-.027c.101-.06.231-.141.392-.241.157-.101.275-.178.348-.235.013-.01.023-.007.034.007s.01.023-.003.034c-.054.04-.03.127.07.265a22.19 22.19 0 0 0 .884 1.19l.188.245c.07.094.124.154.167.188s.087.044.134.027c.01-.003.023 0 .03.01.01.013.007.02 0 .03-.081.05-.201.127-.359.235s-.285.194-.379.265c-.007.007-.017 0-.027-.013s-.013-.023-.007-.03c.167-.164.265-.325.285-.479s-.023-.312-.141-.463c-.05-.067-.094-.114-.131-.137s-.074-.03-.114-.017-.09.04-.157.09l-1.679 1.254c-.074.057-.124.104-.147.144s-.023.087-.003.141c.02.054.067.127.138.221.007.007 0 .017-.013.027s-.023.013-.03.007c-.064-.084-.111-.154-.148-.204l-.218-.302-.214-.282c-.04-.05-.094-.117-.161-.208-.003-.003.003-.013.017-.023s.023-.013.027-.01c.07.094.127.161.174.194.047.037.091.05.138.037a.55.55 0 0 0 .181-.097l1.686-1.257c.064-.047.104-.087.124-.121s.023-.07.013-.111a.497.497 0 0 0-.091-.161.603.603 0 0 0-.405-.265z"/></symbol><symbol id="icon-menu" viewBox="0 0 32 32"><use xlink:href="#reuse-0"/></symbol><symbol id="icon-pn" viewBox="0 0 33 32"><path d="M16.42 0C7.582 0 .416 7.163.416 15.996c0 6.549 3.944 12.176 9.581 14.654-.043-1.114-.007-2.457.279-3.671l2.058-8.719s-.514-1.021-.514-2.528c0-2.371 1.372-4.142 3.086-4.142 1.457 0 2.158 1.093 2.158 2.399 0 1.464-.936 3.649-1.415 5.677-.4 1.7.85 3.078 2.529 3.078 3.029 0 5.073-3.892 5.073-8.505 0-3.506-2.365-6.127-6.659-6.127-4.851 0-7.88 3.621-7.88 7.663 0 1.393.414 2.378 1.057 3.135.293.35.336.493.229.893-.079.293-.25 1-.329 1.285-.107.407-.436.55-.8.4-2.236-.914-3.279-3.356-3.279-6.113 0-4.542 3.837-9.991 11.438-9.991 6.109 0 10.131 4.42 10.131 9.162 0 6.277-3.494 10.962-8.638 10.962-1.729 0-3.351-.935-3.908-1.992 0 0-.929 3.685-1.129 4.399-.336 1.235-1 2.464-1.607 3.428 1.358.416 2.919.655 4.536.657h.001c8.838 0 16.004-7.163 16.004-15.996S25.259 0 16.422 0z"/></symbol><symbol id="icon-recorvation" viewBox="0 0 32 32"><use xlink:href="#reuse-1"/><path fill="var(--color3, #000)" d="M23.47 8.53H8.53v14.94h14.94V8.53z"/></symbol><symbol id="icon-signature" viewBox="0 0 58 32"><path d="M16.577 15.325c.138-.023.242.023.311.138a.34.34 0 0 1 .052.346c-.035.115-.121.184-.259.208-.357.046-.755.11-1.194.19-.6 2.053-1.539 3.944-2.819 5.674s-2.825 3.171-4.636 4.324c-.369.242-.663.427-.882.553a18.08 18.08 0 0 1-1.003.571c-.438.254-.83.444-1.176.571s-.726.248-1.142.363a3.19 3.19 0 0 1-1.159.156 2.387 2.387 0 0 1-1.003-.242c-.45-.219-.755-.525-.917-.917a1.86 1.86 0 0 1-.069-1.228c.104-.438.254-.853.45-1.245a5.56 5.56 0 0 1 .675-1.09 20.785 20.785 0 0 1 5.795-5.172 22.917 22.917 0 0 1 7.334-2.906c.265-.992.45-1.983.553-2.975.104-1.003.11-2.024.017-3.062-.081-1.038-.265-2.012-.553-2.923s-.726-1.764-1.315-2.56a7.568 7.568 0 0 0-2.093-1.972 7.386 7.386 0 0 0-2.024-.882A7.705 7.705 0 0 0 7.358.934c-.715 0-1.43.127-2.145.381-.703.242-1.338.6-1.903 1.072-1.107.934-1.833 2.116-2.179 3.546s-.236 2.802.329 4.117c.058.138.046.259-.035.363a.395.395 0 0 1-.311.138c-.127-.012-.219-.081-.277-.208C.48 9.524.284 8.682.249 7.818S.318 6.146.56 5.396a7.299 7.299 0 0 1 1.107-2.145 7.556 7.556 0 0 1 1.712-1.712A7.22 7.22 0 0 1 5.61.501C6.44.259 7.294.178 8.17.259c1.119.104 2.133.398 3.044.882.923.484 1.689 1.095 2.301 1.833a10.317 10.317 0 0 1 1.539 2.508c.427.946.726 1.926.899 2.941.185 1.003.271 2.03.259 3.079a18.024 18.024 0 0 1-.519 3.961c.346-.058.64-.104.882-.138zm-2.733 3.321a16.35 16.35 0 0 0 .882-2.266 23.092 23.092 0 0 0-7.144 2.906c-2.214 1.361-4.007 3.039-5.379 5.034-.588.83-.882 1.459-.882 1.885 0 .311.052.571.156.778.104.219.225.375.363.467.138.104.317.167.536.19.231.023.438.023.623 0s.409-.075.675-.156a4 4 0 0 0 .588-.19 30.258 30.258 0 0 0 .589-.225 17.541 17.541 0 0 0 3.615-1.989c2.364-1.718 4.157-3.863 5.379-6.435zm5.149-2.732c.542.138.923.473 1.142 1.003.219.519.231 1.044.035 1.574-.173.507-.432.974-.778 1.401s-.738.652-1.176.675c-.45.023-.778-.133-.986-.467-.196-.334-.254-.721-.173-1.159.161-.899.628-1.799 1.401-2.698a.55.55 0 0 1 .087-.069c.081-.219.231-.306.45-.259zm-1.142 3.857c.219.196.548.063.986-.398.507-.53.778-1.084.813-1.661.035-.496-.179-.848-.64-1.055-.092.104-.19.231-.294.381-.104.138-.225.311-.363.519s-.259.415-.363.623a4.7 4.7 0 0 0-.259.623 1.398 1.398 0 0 0-.087.553.65.65 0 0 0 .208.415zm8.194-3.667c.115-.081.236-.092.363-.035s.196.144.208.259c.023.115-.017.219-.121.311a44.564 44.564 0 0 0-2.301 1.712c.311.196.565.392.761.588.208.184.386.398.536.64.161.242.219.507.173.796s-.19.577-.432.865-.559.554-.951.796a4.67 4.67 0 0 1-1.245.571c-.427.138-.836.133-1.228-.017s-.675-.456-.848-.917c-.265-.727.121-1.563 1.159-2.508l.865-.744-.45-.242a13.11 13.11 0 0 1-.553-.311 26.25 26.25 0 0 1-.45-.294c-.196-.138-.352-.271-.467-.398s-.219-.265-.311-.415c-.357-.623-.161-1.32.588-2.093.646-.669 1.39-1.101 2.231-1.297.923-.219 1.505-.017 1.747.605.035.104.063.219.087.346a.355.355 0 0 1-.138.329.407.407 0 0 1-.346.052.298.298 0 0 1-.208-.277c-.092-.634-.675-.628-1.747.017-.473.277-.83.536-1.072.778a3.173 3.173 0 0 0-.45.536.737.737 0 0 0-.069.502c.046.173.173.357.381.553.104.092.225.19.363.294.138.092.254.167.346.225.104.058.248.144.432.259.196.104.323.173.381.208.035.012.081.04.138.087.069.035.121.058.156.069a47.852 47.852 0 0 1 2.474-1.851zm-1.557 4.895c.15-.161.259-.317.329-.467s.092-.288.069-.415a1.088 1.088 0 0 0-.138-.381 1.13 1.13 0 0 0-.294-.346 2.87 2.87 0 0 0-.381-.294 6.35 6.35 0 0 0-.45-.294c-.311.265-.605.513-.882.744a3.5 3.5 0 0 1-.242.208c-.104.092-.19.167-.259.225s-.144.138-.225.242a1.777 1.777 0 0 0-.173.277c-.254.565-.231.969.069 1.211.311.242.727.294 1.245.156.427-.104.871-.392 1.332-.865zm8.456-4.982c.104-.104.213-.127.329-.069a.327.327 0 0 1 .208.259c.035.115.006.231-.087.346-2.375 2.433-4.428 3.442-6.158 3.027-.611-.138-1.072-.404-1.384-.796a1.711 1.711 0 0 1-.363-1.332c.058-.496.283-.969.675-1.418.311-.334.715-.605 1.211-.813.738-.3 1.101-.115 1.09.553v.035c-.012.45-.283.876-.813 1.28s-1.009.536-1.436.398c-.046.519.173.905.657 1.159s1.015.329 1.591.225a5.843 5.843 0 0 0 2.283-.951c.715-.496 1.447-1.13 2.197-1.903zm-5.484-.103c-.161.012-.34.11-.536.294a3.474 3.474 0 0 0-.484.605c.242.115.536-.023.882-.415.231-.265.294-.427.19-.484h-.052zm9.344.934c.138-.023.242.017.311.121a.34.34 0 0 1 .052.346c-.035.127-.121.202-.259.225a11.833 11.833 0 0 0-3.459 1.107c-.035 1.384-.046 2.791-.035 4.221.196.161.334.283.415.363.969.899 1.591 2.37 1.868 4.411a6.689 6.689 0 0 1-.087 2.301c-.242 1.188-.761 1.453-1.557.796-.231-.196-.432-.467-.605-.813a6.047 6.047 0 0 1-.381-1.003c-.081-.334-.15-.744-.208-1.228a21.741 21.741 0 0 1-.087-1.211 92.178 92.178 0 0 1-.052-2.128 57.751 57.751 0 0 1-.035-1.021c-1.176-.888-2.56-1.257-4.151-1.107-.173.012-.288-.063-.346-.225-.069-.15-.04-.283.087-.398 1.58-1.499 3.073-2.629 4.48-3.39.069-1.465.173-2.935.311-4.411.012-.15.029-.421.052-.813.035-.392.063-.75.087-1.072.023-.334.063-.726.121-1.176.058-.461.127-.871.208-1.228s.196-.715.346-1.072c.15-.369.317-.663.502-.882.196-.219.438-.381.727-.484.288-.115.605-.138.951-.069.138.035.231.115.277.242s.035.242-.035.346-.173.138-.311.104c-.277-.058-.536.035-.778.277-.231.242-.432.605-.605 1.09a16.69 16.69 0 0 0-.45 1.678 26.414 26.414 0 0 0-.329 2.179 59.371 59.371 0 0 0-.225 2.404c-.046.796-.087 1.643-.121 2.543a11.904 11.904 0 0 1 3.321-1.021zm-1.712 12.488a7.592 7.592 0 0 0-.294-2.941 6.126 6.126 0 0 0-1.367-2.387c.023.853.046 1.447.069 1.782.104 1.349.248 2.381.432 3.096.15.565.352.963.605 1.194.265.242.438.087.519-.467l.035-.277zm-2.422-6.953a63.077 63.077 0 0 1 .052-3.338c-1.061.6-2.168 1.424-3.321 2.474 1.222.035 2.312.323 3.269.865zm4.361-6.712c.058-.127.15-.196.277-.208s.231.029.311.121c.092.092.115.208.069.346a11.576 11.576 0 0 0-.848 4.497c0 .196-.098.294-.294.294-.208 0-.334-.092-.381-.277a.315.315 0 0 1-.017-.104c-.023-1.557.271-3.114.882-4.67zm1.159-1.989c.081.196.023.352-.173.467l-1.228.726a.29.29 0 0 1-.259.017.381.381 0 0 1-.19-.19c-.081-.184-.023-.34.173-.467l1.228-.726a.26.26 0 0 1 .259 0 .315.315 0 0 1 .19.173zm11.972 2.387a.336.336 0 0 1 .329-.121c.138.023.231.092.277.208.058.104.046.213-.035.329-.288.357-.628.727-1.021 1.107s-.853.761-1.384 1.142a8.928 8.928 0 0 1-1.557.882 3.297 3.297 0 0 1-1.557.242 2.151 2.151 0 0 1-1.367-.692c-.208-.231-.49-.571-.848-1.021-.346-.45-.6-.767-.761-.951a1.728 1.728 0 0 0-.294-.242c-.092-.069-.173-.115-.242-.138s-.144-.017-.225.017-.15.069-.208.104c-.046.023-.11.081-.19.173s-.138.167-.173.225a8.772 8.772 0 0 1-.19.294l-.19.259c-.058.092-.213.386-.467.882a7.743 7.743 0 0 1-.761 1.245c-.254.334-.496.519-.727.553a.32.32 0 0 1-.329-.121 1.163 1.163 0 0 1-.173-.363 1.29 1.29 0 0 1-.052-.484c.012-.196.023-.346.035-.45s.04-.271.087-.502c.046-.231.075-.363.087-.398.069-.438.202-1.061.398-1.868a113.1 113.1 0 0 0 .346-1.47c.035-.127.115-.213.242-.259s.242-.035.346.035.138.173.104.311c-.058.254-.156.675-.294 1.263a90.797 90.797 0 0 0-.311 1.332 23.74 23.74 0 0 0-.259 1.418v.156c.092-.173.208-.357.346-.553.15-.196.306-.404.467-.623s.277-.386.346-.502c.035-.046.081-.115.138-.208.069-.092.127-.173.173-.242s.098-.144.156-.225c.069-.092.133-.173.19-.242a3.232 3.232 0 0 1 .398-.398c.081-.058.156-.104.225-.138.184-.046.346-.069.484-.069s.288.052.45.156c.161.104.3.213.415.329.127.115.259.259.398.432.15.173.271.334.363.484.104.138.208.288.311.45.115.161.213.288.294.381.404.496.767.79 1.09.882.323.081.784.012 1.384-.208 1.407-.519 2.652-1.453 3.736-2.802zm6.835-.052c.104-.104.213-.127.329-.069a.327.327 0 0 1 .208.259c.035.115.006.231-.087.346-2.376 2.433-4.428 3.442-6.158 3.027-.611-.138-1.072-.404-1.384-.796a1.711 1.711 0 0 1-.363-1.332c.058-.496.283-.969.675-1.418.311-.334.715-.605 1.211-.813.738-.3 1.101-.115 1.09.553v.035c-.012.45-.283.876-.813 1.28s-1.009.536-1.436.398c-.046.519.173.905.657 1.159s1.015.329 1.591.225a5.843 5.843 0 0 0 2.283-.951c.715-.496 1.447-1.13 2.197-1.903zm-5.483-.103c-.161.012-.34.11-.536.294a3.474 3.474 0 0 0-.484.605c.242.115.536-.023.882-.415.231-.265.294-.427.19-.484h-.052z"/></symbol><symbol id="icon-time" viewBox="0 0 32 32"><use xlink:href="#reuse-1"/><path fill="none" stroke="var(--color1, #fff)" stroke-linecap="round" stroke-linejoin="round" stroke-width="1.349" d="M9.684 10.335a8.505 8.505 0 0 0-2.165 5.572c-.054 4.703 3.787 8.559 8.482 8.575 4.695.008 8.482-3.795 8.482-8.482 0-4.617-3.694-8.381-8.288-8.482-.023 0-.054 0-.078.016-.023.008-.047.023-.062.039s-.031.039-.047.062a.225.225 0 0 0-.016.078v3.694"/><path fill="var(--color1, #fff)" d="m15.007 16.993-3.492-4.99c-.054-.07-.07-.155-.062-.241s.039-.163.101-.225.14-.093.225-.101a.367.367 0 0 1 .233.062l4.99 3.492a1.435 1.435 0 0 1 .333 1.986 1.43 1.43 0 0 1-1.979.365 1.347 1.347 0 0 1-.349-.349z"/></symbol><symbol id="icon-tw" viewBox="0 0 40 32"><path d="M38.81 3.656a15.804 15.804 0 0 1-4.466 1.222l-.078.008A7.875 7.875 0 0 0 37.732.634l.016-.055a15.6 15.6 0 0 1-4.926 1.872l-.101.017A7.946 7.946 0 0 0 26.957.001h-.015.001c-4.373 0-7.912 3.487-7.912 7.787v.04c0 .616.074 1.215.215 1.788l-.011-.051A22.533 22.533 0 0 1 2.952 1.461l-.029-.036a7.611 7.611 0 0 0-1.076 3.913v.001c0 2.7 1.409 5.087 3.536 6.485a7.798 7.798 0 0 1-3.638-.993l.04.02v.096c0 3.777 2.732 6.919 6.348 7.634a7.918 7.918 0 0 1-2.084.273h-.014a7.628 7.628 0 0 1-1.522-.153l.049.008c1.005 3.094 3.931 5.344 7.397 5.408a15.933 15.933 0 0 1-9.791 3.335h-.041.002a16.555 16.555 0 0 1-1.967-.12l.078.008c3.41 2.207 7.578 3.52 12.052 3.52h.064-.003c14.574 0 22.535-11.869 22.535-22.162 0-.338-.009-.675-.025-1.004a16.105 16.105 0 0 0 3.913-3.98l.035-.054z"/></symbol><symbol id="icon-burger" fill="none" viewBox="0 0 45 25"><path stroke="#E1B168" stroke-width="3" d="M0 1.5h45m-45 11h45m-45 11h45"/></symbol><symbol id="icon-close" xmlns="http://www.w3.org/2000/svg" fill="none" viewBox="0 0 41 29"><path stroke="#E1B168" stroke-width="3" d="M.9 26.847 38.206 1.684m-35.629 0 37.307 25.163"/></symbol><symbol id="up" fill="none" xmlns="http://www.w3.org/2000/svg"><circle cx="15" cy="15" r="14" stroke="#000" stroke-width="2"/><path stroke="#000" stroke-width="2" d="m9.133 19.345 6.883-9.83m-1.147.075 6.883 9.83"/></symbol></defs></svg>